<?xml version="1.0" encoding="UTF-8"?>
<svg xmlns="http://www.w3.org/2000/svg" version="1.1" viewBox="0 0 640 720">
  <defs>
    <style>
      .cls-1 {
        fill: #282561;
      }

      .cls-2 {
        fill: #fff;
      }

      .cls-3 {
        fill: #dab529;
      }
    </style>
  </defs>
  <!-- Generator: Adobe Illustrator 28.7.1, SVG Export Plug-In . SVG Version: 1.2.0 Build 142)  -->
  <g>
    <g id="Layer_1">
      <rect class="cls-1" x="-3.63" y="0" width="643.63" height="720"/>
      <g>
        <g id="_x33_0years">
          <path class="cls-3" d="M226.3,573.6c0-12.47-10.15-22.62-22.62-22.62-6.5,0-12.37,2.76-16.49,7.16h-28.09v5.93h21.18l-11.03,14.91,2.52,3.88h1.64c5.92,0,10.01,3.34,10.01,8.86s-4.09,8.78-10.01,8.78c-5.52,0-8.93-2.18-10.35-6.6l-5.32,3.13c2.39,6.27,8.38,9.67,15.67,9.67,4.56,0,8.37-1.36,11.57-4.02,3.2-2.65,4.77-6.33,4.77-10.96v-.32c3.84,3.02,8.68,4.82,13.93,4.82,12.47,0,22.62-10.15,22.62-22.62ZM187.06,573.6c0-9.16,7.46-16.62,16.62-16.62s16.62,7.46,16.62,16.62-7.46,16.62-16.62,16.62-16.62-7.45-16.62-16.62Z"/>
          <polygon class="cls-3" points="198.18 604.03 196.34 599.93 193.53 599.93 196.96 606.07 196.96 609.06 199.44 609.06 199.44 606.09 202.8 599.93 200.01 599.93 198.18 604.03"/>
          <polygon class="cls-3" points="205.6 605.52 209.02 605.52 209.02 603.57 205.6 603.57 205.6 601.9 209.45 601.9 209.45 599.93 203.12 599.93 203.12 609.06 209.55 609.06 209.55 607.1 205.6 607.1 205.6 605.52"/>
          <path class="cls-3" d="M213.03,599.93l-3.29,9.12h2.58l.72-2.39h2.52l.72,2.39h2.58l-3.29-9.12h-2.54ZM213.6,604.77l.69-2.42.68,2.42h-1.37Z"/>
          <path class="cls-3" d="M225.81,604.91c.32-.42.49-1.07.49-1.95,0-1.28-.3-2.12-.91-2.52-.3-.2-.63-.33-.98-.4-.36-.07-.83-.11-1.42-.11h-3.68v9.12h2.48v-3.2h.21l1.86,3.2h2.85l-2.37-3.32c.68-.14,1.17-.41,1.49-.82ZM223.61,603.77c-.12.13-.33.2-.63.2h-1.21v-2.07h1.21c.29,0,.5.07.62.22.12.15.19.43.19.85s-.06.67-.18.8Z"/>
          <path class="cls-3" d="M233.41,605.02c-.27-.39-.72-.74-1.35-1.05l-1.76-.9c-.27-.14-.43-.25-.51-.34-.07-.09-.11-.22-.11-.39,0-.2.1-.33.31-.4.21-.07.54-.11.99-.11.7,0,1.56.15,2.57.44v-1.99c-.8-.3-1.7-.45-2.7-.45-1.39,0-2.37.24-2.94.72-.47.4-.71.98-.71,1.73,0,.84.17,1.46.5,1.86.16.19.36.36.6.53.19.12.49.29.91.5l1.64.85c.09.05.17.1.22.13.06.04.11.1.17.19.06.09.08.19.08.3,0,.24-.08.4-.24.47-.16.07-.48.11-.96.11-.88,0-1.94-.21-3.17-.63v2.12c1.08.32,2.13.47,3.17.47.89,0,1.59-.08,2.1-.23.35-.1.63-.24.83-.42.5-.44.74-1.09.74-1.95,0-.65-.14-1.17-.41-1.55Z"/>
        </g>
        <g>
          <g>
            <path d="M146.31,524.08"/>
            <path d="M385.11,489.03c-19.16,4.99-32.7,8.79-53.35,17.95-18.15,8.06-31.49,16.11-35.74,18.77,6.43-3.82,16.3-9.19,28.59-14.26,20.71-8.54,33.91-12.85,52.91-17.8,19-4.95,54.59-9.1,54.59-9.1,0,0-18.21,1.61-45.3,4-.58.14-1.15.29-1.7.43Z"/>
            <path class="cls-2" d="M233.44,494.95l152.35-12.91s7.8-2.93,15.17-4.43"/>
            <g>
              <path class="cls-2" d="M243.02,575.78c.05-.06-.05.06,0,0h0Z"/>
              <g>
                <path class="cls-2" d="M400.96,477.61c7.37-1.5,18.84-3.82,30.04-5.05,11.2-1.23,18.42-1.59,18.42-1.59,0,0-35.32-2.29-72.12-.74-36.59,1.55-65.9,5.61-99.62,13.8-33.72,8.19-44.23,10.92-44.23,10.92l151.27-12.97s8.87-2.87,16.25-4.37Z"/>
                <path class="cls-2" d="M242.22,527.29c-4.74-4.63-10.84-7.63-17.08-9.85-13.36-4.76-27.14-6.4-41.07-7.31-16.17,5.97-37.77,13.95-37.77,13.95,5.46.91,10.92,1.89,16.37,2.9,13.78,2.56,27.54,5.85,40.82,10.32,11.22,3.78,22.61,9.19,30.1,18.69.89,1.13,3.63,3.97,7.82,14,2-3.34,6.23-10.88,7.24-16.35,1.85-9.98,1.21-18.86-6.45-26.35Z"/>
                <path d="M248.68,522.91c-4.77-4.67-10.93-7.69-17.22-9.93-12.69-4.52-25.76-6.25-38.96-7.2-23.16,2.05-38.27,3.38-38.27,3.38,0,0,12.28.05,16.96.28,4.3.21,8.6.42,12.89.7,13.92.91,27.71,2.55,41.07,7.31,6.24,2.22,12.34,5.22,17.08,9.85,7.66,7.49,8.29,16.37,6.45,26.35-1.01,5.47-5.25,13.01-7.24,16.35-.64,1.07-1.05,1.71-1.05,1.71,0,0,.47-.42,1.28-1.16.44-.4.98-.89,1.61-1.46,1.58-1.44,3.68-3.36,6-5.5,2.16-3.85,5.1-9.65,5.92-14.1,1.86-10.06,1.22-19.02-6.5-26.57Z"/>
                <path class="cls-2" d="M177.06,504.9c5.16.25,10.31.5,15.44.87,13.21.95,26.27,2.68,38.96,7.2,6.29,2.24,12.45,5.26,17.22,9.93,7.72,7.55,8.36,16.51,6.5,26.57-.82,4.45-3.76,10.25-5.92,14.1-1.38,2.45-2.44,4.11-2.44,4.11,0,0,4.69-4.62,6.77-6.62,2.46-2.37,4.94-4.73,7.44-7.05,4.99-4.63,10.09-9.15,15.34-13.48,9.28-7.65,19.02-14.72,29.52-20.6,8.41-4.72,17.05-9.04,25.87-12.95,20.65-9.17,34.19-12.96,53.35-17.95.55-.14,1.12-.29,1.7-.43,19.5-4.8,53.35-8.74,53.35-8.74,0,0-280.2,24.76-280.2,24.76,0,0,12.39.05,17.1.28Z"/>
                <path class="cls-2" d="M280.08,540.83c-11.19,8.83-21.57,18.72-31.23,29.19-1.81,1.96-3.6,3.95-5.35,5.97,0,0,.56,8.34.15,15.7-.55,9.69-3.92,22.89-3.92,22.89,0,0,21.41-42.81,37.8-61.38,16.38-18.56,33.67-33.13,33.68-33.13-1.61.89-3.22,1.79-4.81,2.72-9.18,5.36-17.97,11.45-26.31,18.03Z"/>
              </g>
            </g>
          </g>
          <g>
            <polygon points="382.09 557.13 377.36 569.42 366.29 569.42 365.52 571.41 379.31 571.41 384.04 559.12 413.72 559.12 416.31 552.57 413.58 552.57 411.77 557.13 382.09 557.13"/>
            <polygon points="421.24 546.56 423.73 540.01 421.03 540.01 419.3 544.57 386.92 544.57 384.61 550.58 387.32 550.58 388.87 546.56 421.24 546.56"/>
            <polygon class="cls-2" points="386.92 544.57 419.3 544.57 421.03 540.01 421.79 538.02 375.73 538.02 363.58 569.42 366.29 569.42 377.36 569.42 382.09 557.13 411.77 557.13 413.58 552.57 414.36 550.58 387.32 550.58 384.61 550.58 386.92 544.57"/>
          </g>
          <g>
            <polygon points="429.02 544.57 428.25 546.56 443.92 546.56 444.69 544.57 429.02 544.57"/>
            <polygon points="478.3 540.01 476.87 544.57 458.17 544.57 448.72 569.42 437.84 569.42 437.07 571.41 450.72 571.41 460.18 546.56 478.88 546.56 480.92 540.01 478.3 540.01"/>
            <polygon class="cls-2" points="458.17 544.57 476.87 544.57 478.3 540.01 478.92 538.02 428.8 538.02 426.25 544.57 429.02 544.57 444.69 544.57 443.92 546.56 435.07 569.42 437.84 569.42 448.72 569.42 458.17 544.57"/>
          </g>
          <g>
            <path d="M336.63,544.77c-3.82-.72-7.75-.8-11.61-.38-5.34.59-10.94,2.29-14.45,6.61-1.33,1.63-2.45,3.67-2.44,5.83.02,2.34,1.28,3.93,3.07,5-.48-.79-.76-1.72-.77-2.82-.01-2.16,1.11-4.2,2.44-5.83,3.52-4.31,9.11-6.02,14.45-6.61,3.86-.43,7.79-.34,11.61.38,1.3.24,2.78.59,4.04,1.24-.13-.26-.24-.47-.27-.5-1.34-1.85-3.95-2.52-6.08-2.92Z"/>
            <path d="M340.17,558.74l-9.23.07-.84,2.2,6.7-.05c.72-.34,1.41-.72,2.09-1.13,1.43-.88,1.27-1.09,1.27-1.09Z"/>
            <path d="M360.48,551.62c.39-3.31-1.24-5.65-3.63-7.32,1.03,1.39,1.57,3.07,1.33,5.14h-13.51c.12.14.24.28.35.43.07.1.91,1.75.87,1.75h14.59Z"/>
            <path d="M327.82,569.75c-4.83.79-10.1.77-14.99.46-4.66-.3-10.42-.96-14.34-3.81.43.53.91,1.03,1.43,1.49,3.9,3.43,10.19,4.18,15.21,4.5,4.89.31,10.16.33,14.99-.46,3.09-.5,6.18-.88,9.11-1.86.36-1,1.39-3.87,1.39-3.87-3.93,2.38-8.38,2.83-12.81,3.56Z"/>
            <path d="M342.2,570.41c-.39,1.08-.79,2.18-.79,2.18h11.08l6.53-17.81h-3.1l-5.73,15.63h-7.99Z"/>
            <path class="cls-2" d="M356.84,544.3c-2.48-3.34-7.77-4.91-11.62-5.71-1.22-.25-2.45-.45-3.68-.62-13.03-1.72-27.04-1.07-38.6,5.84-.12.07-.24.14-.36.22-3.43,2.11-6.58,4.9-8.2,8.57-2.03,4.62-.49,9.83,3.23,13.11.28.24.57.47.87.69,3.92,2.84,9.68,3.51,14.34,3.81,4.89.31,10.16.33,14.99-.46,4.43-.72,8.87-1.18,12.81-3.56,0,0-1.03,2.87-1.39,3.87-.08.21-.12.34-.12.34h11.08l5.73-15.63.8-2.18h-26.55l-2.36,6.23,3.14-.02,9.23-.07s.16.21-1.27,1.09c-.67.41-1.37.79-2.09,1.13-5.07,2.41-11.15,3.09-16.64,2.94-2.59-.07-6.34-.52-8.97-2.08-1.79-1.07-3.06-2.65-3.07-5-.01-2.16,1.11-4.2,2.44-5.83,3.52-4.31,9.11-6.02,14.45-6.61,3.86-.43,7.79-.34,11.61.38,2.13.4,4.74,1.07,6.08,2.92.02.03.13.24.27.5.27.52.63,1.25.6,1.25h14.59c.24-2.07-.3-3.76-1.33-5.14Z"/>
          </g>
          <g>
            <path class="cls-2" d="M487.03,525.37c-3.67,0-6.66,2.99-6.66,6.66s2.99,6.66,6.66,6.66,6.66-2.99,6.66-6.66-2.99-6.66-6.66-6.66ZM487.03,538.11c-3.35,0-6.07-2.73-6.07-6.07s2.73-6.07,6.07-6.07,6.07,2.73,6.07,6.07-2.73,6.07-6.07,6.07Z"/>
            <path class="cls-2" d="M488.32,532.27v-.03c.7-.25,1.35-.91,1.35-1.87,0-.63-.23-1.15-.64-1.5-.5-.42-1.23-.6-2.3-.6-.79,0-1.55.07-2.06.16v7.37h1.35v-3.07h.69c.78.02,1.13.33,1.34,1.31.21.93.39,1.54.5,1.76h1.41c-.16-.29-.35-1.15-.59-2.08-.19-.72-.51-1.24-1.04-1.44ZM486.83,531.73h-.81v-2.36c.13-.03.41-.07.84-.07.89,0,1.46.38,1.46,1.2,0,.74-.58,1.23-1.5,1.23Z"/>
          </g>
        </g>
      </g>
      <g>
        <g id="_x33_0years-2" data-name="_x33_0years">
          <path class="cls-2" d="M226.3,254.85c0-12.47-10.15-22.62-22.62-22.62-6.5,0-12.37,2.76-16.49,7.16h-28.09v5.93h21.18l-11.03,14.91,2.52,3.88h1.64c5.92,0,10.01,3.34,10.01,8.86s-4.09,8.78-10.01,8.78c-5.52,0-8.93-2.18-10.35-6.6l-5.32,3.13c2.39,6.27,8.38,9.67,15.67,9.67,4.56,0,8.37-1.36,11.57-4.02,3.2-2.65,4.77-6.33,4.77-10.96v-.32c3.84,3.02,8.68,4.82,13.93,4.82,12.47,0,22.62-10.15,22.62-22.62ZM187.06,254.85c0-9.16,7.46-16.62,16.62-16.62s16.62,7.46,16.62,16.62-7.46,16.62-16.62,16.62-16.62-7.45-16.62-16.62Z"/>
          <polygon class="cls-2" points="198.18 285.28 196.34 281.18 193.53 281.18 196.96 287.32 196.96 290.31 199.44 290.31 199.44 287.34 202.8 281.18 200.01 281.18 198.18 285.28"/>
          <polygon class="cls-2" points="205.6 286.76 209.02 286.76 209.02 284.81 205.6 284.81 205.6 283.15 209.45 283.15 209.45 281.18 203.12 281.18 203.12 290.31 209.55 290.31 209.55 288.34 205.6 288.34 205.6 286.76"/>
          <path class="cls-2" d="M213.03,281.18l-3.29,9.12h2.58l.72-2.39h2.52l.72,2.39h2.58l-3.29-9.12h-2.54ZM213.6,286.02l.69-2.42.68,2.42h-1.37Z"/>
          <path class="cls-2" d="M225.81,286.16c.32-.42.49-1.07.49-1.95,0-1.28-.3-2.12-.91-2.52-.3-.2-.63-.33-.98-.4-.36-.07-.83-.11-1.42-.11h-3.68v9.12h2.48v-3.2h.21l1.86,3.2h2.85l-2.37-3.32c.68-.14,1.17-.41,1.49-.82ZM223.61,285.01c-.12.13-.33.2-.63.2h-1.21v-2.07h1.21c.29,0,.5.07.62.22.12.15.19.43.19.85s-.06.67-.18.8Z"/>
          <path class="cls-2" d="M233.41,286.26c-.27-.39-.72-.74-1.35-1.05l-1.76-.9c-.27-.14-.43-.25-.51-.34-.07-.09-.11-.22-.11-.39,0-.2.1-.33.31-.4.21-.07.54-.11.99-.11.7,0,1.56.15,2.57.44v-1.99c-.8-.3-1.7-.45-2.7-.45-1.39,0-2.37.24-2.94.72-.47.4-.71.98-.71,1.73,0,.84.17,1.46.5,1.86.16.19.36.36.6.53.19.12.49.29.91.5l1.64.85c.09.05.17.1.22.13.06.04.11.1.17.19.06.09.08.19.08.3,0,.24-.08.4-.24.47-.16.07-.48.11-.96.11-.88,0-1.94-.21-3.17-.63v2.12c1.08.32,2.13.47,3.17.47.89,0,1.59-.08,2.1-.23.35-.1.63-.24.83-.42.5-.44.74-1.09.74-1.95,0-.65-.14-1.17-.41-1.55Z"/>
        </g>
        <g>
          <g>
            <path d="M146.31,205.33"/>
            <path d="M385.11,170.28c-19.16,4.99-32.7,8.79-53.35,17.95-18.15,8.06-31.49,16.11-35.74,18.77,6.43-3.82,16.3-9.19,28.59-14.26,20.71-8.54,33.91-12.85,52.91-17.8,19-4.95,54.59-9.1,54.59-9.1,0,0-18.21,1.61-45.3,4-.58.14-1.15.29-1.7.43Z"/>
            <path class="cls-2" d="M233.44,176.2l152.35-12.91s7.8-2.93,15.17-4.43"/>
            <g>
              <path class="cls-2" d="M243.02,257.03c.05-.06-.05.06,0,0h0Z"/>
              <g>
                <path class="cls-2" d="M400.96,158.86c7.37-1.5,18.84-3.82,30.04-5.05,11.2-1.23,18.42-1.59,18.42-1.59,0,0-35.32-2.29-72.12-.74-36.59,1.55-65.9,5.61-99.62,13.8-33.72,8.19-44.23,10.92-44.23,10.92l151.27-12.97s8.87-2.87,16.25-4.37Z"/>
                <path class="cls-2" d="M242.22,208.54c-4.74-4.63-10.84-7.63-17.08-9.85-13.36-4.76-27.14-6.4-41.07-7.31-16.17,5.97-37.77,13.95-37.77,13.95,5.46.91,10.92,1.89,16.37,2.9,13.78,2.56,27.54,5.85,40.82,10.32,11.22,3.78,22.61,9.19,30.1,18.69.89,1.13,3.63,3.97,7.82,14,2-3.34,6.23-10.88,7.24-16.35,1.85-9.98,1.21-18.86-6.45-26.35Z"/>
                <path d="M248.68,204.15c-4.77-4.67-10.93-7.69-17.22-9.93-12.69-4.52-25.76-6.25-38.96-7.2-23.16,2.05-38.27,3.38-38.27,3.38,0,0,12.28.05,16.96.28,4.3.21,8.6.42,12.89.7,13.92.91,27.71,2.55,41.07,7.31,6.24,2.22,12.34,5.22,17.08,9.85,7.66,7.49,8.29,16.37,6.45,26.35-1.01,5.47-5.25,13.01-7.24,16.35-.64,1.07-1.05,1.71-1.05,1.71,0,0,.47-.42,1.28-1.16.44-.4.98-.89,1.61-1.46,1.58-1.44,3.68-3.36,6-5.5,2.16-3.85,5.1-9.65,5.92-14.1,1.86-10.06,1.22-19.02-6.5-26.57Z"/>
                <path class="cls-2" d="M177.06,186.15c5.16.25,10.31.5,15.44.87,13.21.95,26.27,2.68,38.96,7.2,6.29,2.24,12.45,5.26,17.22,9.93,7.72,7.55,8.36,16.51,6.5,26.57-.82,4.45-3.76,10.25-5.92,14.1-1.38,2.45-2.44,4.11-2.44,4.11,0,0,4.69-4.62,6.77-6.62,2.46-2.37,4.94-4.73,7.44-7.05,4.99-4.63,10.09-9.15,15.34-13.48,9.28-7.65,19.02-14.72,29.52-20.6,8.41-4.72,17.05-9.04,25.87-12.95,20.65-9.17,34.19-12.96,53.35-17.95.55-.14,1.12-.29,1.7-.43,19.5-4.8,53.35-8.74,53.35-8.74,0,0-280.2,24.76-280.2,24.76,0,0,12.39.05,17.1.28Z"/>
                <path class="cls-2" d="M280.08,222.07c-11.19,8.83-21.57,18.72-31.23,29.19-1.81,1.96-3.6,3.95-5.35,5.97,0,0,.56,8.34.15,15.7-.55,9.69-3.92,22.89-3.92,22.89,0,0,21.41-42.81,37.8-61.38,16.38-18.56,33.67-33.13,33.68-33.13-1.61.89-3.22,1.79-4.81,2.72-9.18,5.36-17.97,11.45-26.31,18.03Z"/>
              </g>
            </g>
          </g>
          <g>
            <polygon points="382.09 238.38 377.36 250.67 366.29 250.67 365.52 252.65 379.31 252.65 384.04 240.37 413.72 240.37 416.31 233.81 413.58 233.81 411.77 238.38 382.09 238.38"/>
            <polygon points="421.24 227.81 423.73 221.25 421.03 221.25 419.3 225.82 386.92 225.82 384.61 231.83 387.32 231.83 388.87 227.81 421.24 227.81"/>
            <polygon class="cls-2" points="386.92 225.82 419.3 225.82 421.03 221.25 421.79 219.27 375.73 219.27 363.58 250.67 366.29 250.67 377.36 250.67 382.09 238.38 411.77 238.38 413.58 233.81 414.36 231.83 387.32 231.83 384.61 231.83 386.92 225.82"/>
          </g>
          <g>
            <polygon points="429.02 225.82 428.25 227.81 443.92 227.81 444.69 225.82 429.02 225.82"/>
            <polygon points="478.3 221.25 476.87 225.82 458.17 225.82 448.72 250.67 437.84 250.67 437.07 252.65 450.72 252.65 460.18 227.81 478.88 227.81 480.92 221.25 478.3 221.25"/>
            <polygon class="cls-2" points="458.17 225.82 476.87 225.82 478.3 221.25 478.92 219.27 428.8 219.27 426.25 225.82 429.02 225.82 444.69 225.82 443.92 227.81 435.07 250.67 437.84 250.67 448.72 250.67 458.17 225.82"/>
          </g>
          <g>
            <path d="M336.63,226.01c-3.82-.72-7.75-.8-11.61-.38-5.34.59-10.94,2.29-14.45,6.61-1.33,1.63-2.45,3.67-2.44,5.83.02,2.34,1.28,3.93,3.07,5-.48-.79-.76-1.72-.77-2.82-.01-2.16,1.11-4.2,2.44-5.83,3.52-4.31,9.11-6.02,14.45-6.61,3.86-.43,7.79-.34,11.61.38,1.3.24,2.78.59,4.04,1.24-.13-.26-.24-.47-.27-.5-1.34-1.85-3.95-2.52-6.08-2.92Z"/>
            <path d="M340.17,239.99l-9.23.07-.84,2.2,6.7-.05c.72-.34,1.41-.72,2.09-1.13,1.43-.88,1.27-1.09,1.27-1.09Z"/>
            <path d="M360.48,232.87c.39-3.31-1.24-5.65-3.63-7.32,1.03,1.39,1.57,3.07,1.33,5.14h-13.51c.12.14.24.28.35.43.07.1.91,1.75.87,1.75h14.59Z"/>
            <path d="M327.82,251c-4.83.79-10.1.77-14.99.46-4.66-.3-10.42-.96-14.34-3.81.43.53.91,1.03,1.43,1.49,3.9,3.43,10.19,4.18,15.21,4.5,4.89.31,10.16.33,14.99-.46,3.09-.5,6.18-.88,9.11-1.86.36-1,1.39-3.87,1.39-3.87-3.93,2.38-8.38,2.83-12.81,3.56Z"/>
            <path d="M342.2,251.65c-.39,1.08-.79,2.18-.79,2.18h11.08l6.53-17.81h-3.1l-5.73,15.63h-7.99Z"/>
            <path class="cls-2" d="M356.84,225.55c-2.48-3.34-7.77-4.91-11.62-5.71-1.22-.25-2.45-.45-3.68-.62-13.03-1.72-27.04-1.07-38.6,5.84-.12.07-.24.14-.36.22-3.43,2.11-6.58,4.9-8.2,8.57-2.03,4.62-.49,9.83,3.23,13.11.28.24.57.47.87.69,3.92,2.84,9.68,3.51,14.34,3.81,4.89.31,10.16.33,14.99-.46,4.43-.72,8.87-1.18,12.81-3.56,0,0-1.03,2.87-1.39,3.87-.08.21-.12.34-.12.34h11.08l5.73-15.63.8-2.18h-26.55l-2.36,6.23,3.14-.02,9.23-.07s.16.21-1.27,1.09c-.67.41-1.37.79-2.09,1.13-5.07,2.41-11.15,3.09-16.64,2.94-2.59-.07-6.34-.52-8.97-2.08-1.79-1.07-3.06-2.65-3.07-5-.01-2.16,1.11-4.2,2.44-5.83,3.52-4.31,9.11-6.02,14.45-6.61,3.86-.43,7.79-.34,11.61.38,2.13.4,4.74,1.07,6.08,2.92.02.03.13.24.27.5.27.52.63,1.25.6,1.25h14.59c.24-2.07-.3-3.76-1.33-5.14Z"/>
          </g>
          <g>
            <path class="cls-2" d="M487.03,206.62c-3.67,0-6.66,2.99-6.66,6.66s2.99,6.66,6.66,6.66,6.66-2.99,6.66-6.66-2.99-6.66-6.66-6.66ZM487.03,219.35c-3.35,0-6.07-2.73-6.07-6.07s2.73-6.07,6.07-6.07,6.07,2.73,6.07,6.07-2.73,6.07-6.07,6.07Z"/>
            <path class="cls-2" d="M488.32,213.52v-.03c.7-.25,1.35-.91,1.35-1.87,0-.63-.23-1.15-.64-1.5-.5-.42-1.23-.6-2.3-.6-.79,0-1.55.07-2.06.16v7.37h1.35v-3.07h.69c.78.02,1.13.33,1.34,1.31.21.93.39,1.54.5,1.76h1.41c-.16-.29-.35-1.15-.59-2.08-.19-.72-.51-1.24-1.04-1.44ZM486.83,212.97h-.81v-2.36c.13-.03.41-.07.84-.07.89,0,1.46.38,1.46,1.2,0,.74-.58,1.23-1.5,1.23Z"/>
          </g>
        </g>
      </g>
    </g>
  </g>
</svg>