<?xml version="1.0" encoding="UTF-8"?><svg id="Layer_1" xmlns="http://www.w3.org/2000/svg" viewBox="0 0 1024 1024"><defs><style>.cls-1{fill:#fff;}</style></defs><rect width="1024" height="1024"/><path class="cls-1" d="M717.78,819.87c-11.02.75-18.03-5.92-25.03-12.93-51.16-51.2-102.36-102.37-153.63-153.45-21.83-21.75-32.38-21.66-54.24.08-21.06,20.95-41.97,42.06-63.09,62.95-14.87,14.7-30.68,16.01-42.62,3.9-11.64-11.81-10.14-28.25,4.29-42.72,35.08-35.18,70.22-70.3,105.48-105.3,16.45-16.32,29.7-16.38,46.09-.06,66.21,65.91,132.26,131.99,198.48,197.89,9.73,9.68,14.23,20.5,8.48,33.57-4.49,10.22-12.98,15.51-24.2,16.07Z"/><path class="cls-1" d="M820.54,307.25c.4,11.01-6.52,17.92-13.47,24.86-50.49,50.34-101.02,100.64-151.43,151.06-24.26,24.26-24.22,33.46-.17,57.52,20.62,20.63,41.41,41.09,61.92,61.83,14.52,14.69,15.44,30.76,2.92,42.54-11.82,11.11-27.62,9.74-41.51-4.04-35.66-35.36-71.28-70.76-106.71-106.36-15.51-15.58-15.63-29.6-.27-44.98,66.39-66.49,132.99-132.77,199.43-199.2,9.23-9.23,19.6-13.43,32.24-8.37,11.23,4.49,16.27,13.51,17.07,25.15Z"/><path class="cls-1" d="M652.54,324.82c.28,7.58-4.32,14.02-10.22,19.9-36.28,36.16-72.41,72.49-108.87,108.48-14.49,14.29-28.2,14.5-42.51.3-67.34-66.86-134.49-133.92-201.51-201.1-12.85-12.88-13.17-29.01-1.89-40.23,11.6-11.54,27.85-10.82,41.45,2.69,51.65,51.33,103.06,102.89,154.63,154.3,23.56,23.49,33.16,23.52,56.43.41,21.82-21.66,43.47-43.49,65.33-65.1,8.82-8.72,19.2-11.84,31.03-6.51,10.95,4.93,16.3,13.6,16.13,26.86Z"/><path class="cls-1" d="M229.27,744.09c-9.77-.56-18.73-5.66-23.43-16.76-5.01-11.84-1.9-22.18,6.91-31.01,28.62-28.67,57.32-57.26,85.97-85.89,25.22-25.19,50.54-50.28,75.58-75.64,16.28-16.48,16.16-29.17-.34-45.89-22-22.29-44.38-44.22-66.42-66.47-14.97-15.11-16.49-30.38-4.7-42.61,11.89-12.33,28.49-10.66,43.81,4.58,34.45,34.28,68.89,68.57,103.24,102.95,18.49,18.51,18.41,31.04-.11,49.53-64.98,64.86-130.03,129.65-194.93,194.58-6.69,6.7-13.55,12.41-25.58,12.63Z"/></svg>